<svg width="73" height="45" viewBox="0 0 73 45" fill="none" xmlns="http://www.w3.org/2000/svg">
<path d="M46.2594 34C51.2683 34 55.2301 30.2926 55.2301 25.7201C55.2301 21.1475 51.1197 17.4402 46.1099 17.4402C46.0598 17.4402 45.9859 17.4464 45.9358 17.4472C47.9163 16.0075 50.4046 15.14 53.1273 15.14C54.38 15.14 55.3889 14.2127 55.3889 13.07C55.3889 11.9272 54.5702 11 53.3176 11C44.4267 11.0008 37.3889 17.6038 37.3889 25.7201C37.3889 25.7216 37.3889 25.7232 37.3889 25.7255C37.3889 30.2958 41.2522 34 46.2594 34Z" fill="#94ACE8"/>
<path d="M25.7664 34C30.5038 34 34.2443 30.2926 34.2443 25.7201C34.2443 21.1475 30.3536 17.4402 25.6162 17.4402C25.5688 17.4402 25.4973 17.4464 25.45 17.4472C27.3231 16.0075 29.6757 15.14 32.2508 15.14C33.4355 15.14 34.3889 14.2127 34.3889 13.07C34.3889 11.9272 33.6267 11 32.4419 11C24.0331 11.0008 17.3889 17.6038 17.3889 25.7201C17.3889 25.7216 17.3889 25.7232 17.3889 25.7255C17.3889 30.2958 21.0307 34 25.7664 34Z" fill="#94ACE8"/>
</svg>
